<svg width="18" height="44" viewBox="0 0 18 44" fill="none" xmlns="http://www.w3.org/2000/svg">
<path d="M18 44C13.2261 44 8.64773 41.6821 5.27208 37.5564C1.89642 33.4305 0 27.8348 0 22C0 16.1652 1.89642 10.5695 5.27208 6.44365C8.64773 2.31785 13.2261 8.81025e-07 18 0L18 22L18 44Z" fill="#218AFF"/>
<path d="M18 44C13.2261 44 8.64773 41.6821 5.27208 37.5564C1.89642 33.4305 0 27.8348 0 22C0 16.1652 1.89642 10.5695 5.27208 6.44365C8.64773 2.31785 13.2261 8.81025e-07 18 0L18 22L18 44Z" fill="url(#paint0_linear)"/>
<defs>
<linearGradient id="paint0_linear" x1="3.5" y1="14.2766" x2="6.8049" y2="45.1966" gradientUnits="userSpaceOnUse">
<stop stop-color="#218AFF"/>
<stop offset="0.458011" stop-color="#32C7FF"/>
</linearGradient>
</defs>
</svg>
