<svg width="31" height="30" viewBox="0 0 31 30" fill="none" xmlns="http://www.w3.org/2000/svg">
<g clip-path="url(#clip0)">
<path d="M23.8126 16.5839C23.1984 15.9444 22.4576 15.6025 21.6725 15.6025C20.8937 15.6025 20.1466 15.938 19.5071 16.5775L17.5062 18.572C17.3416 18.4834 17.177 18.401 17.0187 18.3187C16.7908 18.2048 16.5755 18.0972 16.3919 17.9832C14.5177 16.7929 12.8144 15.2415 11.1809 13.2344C10.3894 12.234 9.85756 11.3918 9.47133 10.5371C9.99053 10.0622 10.4717 9.56835 10.9403 9.09345C11.1176 8.91615 11.2948 8.73255 11.4721 8.55525C12.8018 7.22563 12.8018 5.50341 11.4721 4.17375L9.74359 2.4452C9.54731 2.24891 9.34469 2.0463 9.15474 1.84368C8.77484 1.45112 8.37594 1.04589 7.96438 0.665989C7.35021 0.0581394 6.61573 -0.264771 5.84326 -0.264771C5.07079 -0.264771 4.32365 0.0581394 3.69048 0.665989C3.68415 0.672319 3.68415 0.672319 3.67782 0.678649L1.52504 2.85042C0.714576 3.66088 0.252362 4.64863 0.151054 5.79467C-0.000907242 7.64353 0.54362 9.36575 0.961513 10.4927C1.98725 13.2597 3.51953 15.824 5.80527 18.572C8.57856 21.8835 11.9153 24.4985 15.727 26.341C17.1833 27.0312 19.1272 27.848 21.2989 27.9873C21.4319 27.9937 21.5712 28 21.6978 28C23.1605 28 24.3888 27.4744 25.3512 26.4296C25.3576 26.417 25.3702 26.4106 25.3766 26.398C25.7058 25.9991 26.0857 25.6382 26.4846 25.2519C26.7569 24.9923 27.0355 24.7201 27.3077 24.4352C27.9346 23.783 28.2638 23.0233 28.2638 22.2444C28.2638 21.4594 27.9282 20.7059 27.2887 20.0727L23.8126 16.5839ZM26.0794 23.2511C26.073 23.2511 26.073 23.2575 26.0794 23.2511C25.8324 23.5171 25.5792 23.7578 25.3069 24.0237C24.8953 24.4163 24.4775 24.8278 24.0849 25.29C23.4454 25.9739 22.6919 26.2967 21.7042 26.2967C21.6092 26.2967 21.5079 26.2967 21.4129 26.2903C19.5324 26.17 17.7848 25.4356 16.4742 24.8088C12.8904 23.0739 9.74359 20.6108 7.1286 17.4893C4.96949 14.8869 3.52586 12.4809 2.56977 9.89765C1.98092 8.32105 1.76564 7.09267 1.86062 5.93396C1.92394 5.19316 2.20886 4.57898 2.73439 4.05345L4.89351 1.89434C5.20376 1.60308 5.53301 1.44479 5.85593 1.44479C6.25482 1.44479 6.57774 1.68539 6.78035 1.88801C6.78669 1.89434 6.79302 1.90067 6.79935 1.907C7.18558 2.26791 7.55282 2.64148 7.93906 3.04038C8.13534 3.24299 8.33795 3.4456 8.54057 3.65455L10.2691 5.38311C10.9403 6.05427 10.9403 6.67477 10.2691 7.34594C10.0855 7.52955 9.90822 7.71317 9.7246 7.89046C9.19273 8.43495 8.6862 8.94155 8.13534 9.43535C8.12268 9.44805 8.11001 9.45435 8.10368 9.46705C7.55915 10.0115 7.66046 10.5434 7.77443 10.9043C7.78076 10.9233 7.7871 10.9423 7.79343 10.9613C8.24298 12.0503 8.87615 13.0761 9.83857 14.2982L9.8449 14.3045C11.5924 16.4573 13.435 18.1351 15.4674 19.4204C15.727 19.5851 15.993 19.7181 16.2462 19.8447C16.4742 19.9586 16.6895 20.0664 16.8731 20.1804C16.8984 20.193 16.9237 20.212 16.9491 20.2247C17.1643 20.3323 17.3669 20.3829 17.5759 20.3829C18.1014 20.3829 18.4307 20.0536 18.5383 19.946L20.7038 17.7805C20.919 17.5653 21.2609 17.3057 21.6598 17.3057C22.0524 17.3057 22.3753 17.5526 22.5716 17.7679C22.5779 17.7742 22.5779 17.7742 22.5843 17.7805L26.073 21.2693C26.7252 21.9151 26.7252 22.58 26.0794 23.2511Z" fill="#314862"/>
<path d="M16.3159 5.13616C17.9748 5.41476 19.4817 6.19989 20.6848 7.40291C21.8878 8.60595 22.6666 10.1129 22.9515 11.7718C23.0211 12.1897 23.3821 12.481 23.7936 12.481C23.8443 12.481 23.8886 12.4747 23.9392 12.4683C24.4078 12.3923 24.718 11.9491 24.6421 11.4806C24.3001 9.47335 23.3504 7.64352 21.9004 6.19356C20.4505 4.7436 18.6206 3.79384 16.6135 3.45193C16.1449 3.37595 15.708 3.6862 15.6257 4.14842C15.5434 4.61063 15.8473 5.06018 16.3159 5.13616Z" fill="#314862"/>
<path d="M30.0689 11.2337C29.5054 7.92848 27.9478 4.92092 25.5544 2.52754C23.161 0.134149 20.1535 -1.42345 16.8483 -1.98697C16.3861 -2.06928 15.9492 -1.7527 15.8669 -1.29048C15.7909 -0.821931 16.1012 -0.385051 16.5697 -0.302731C19.5203 0.197469 22.2113 1.59678 24.3514 3.73056C26.4915 5.87068 27.8845 8.56167 28.3847 11.5123C28.4543 11.9302 28.8152 12.2214 29.2268 12.2214C29.2774 12.2214 29.3218 12.2151 29.3724 12.2087C29.8346 12.1391 30.1512 11.6959 30.0689 11.2337Z" fill="#314862"/>
</g>
<defs>
<clipPath id="clip0">
<rect width="30" height="30" fill="white" transform="translate(0.125)"/>
</clipPath>
</defs>
</svg>
