<svg width="16" height="15" viewBox="0 0 16 15" fill="none" xmlns="http://www.w3.org/2000/svg">
<g clip-path="url(#clip0)">
<path d="M3.25484 4.00085H0.250977V14.5H3.25484V4.00085ZM1.75291 13.7501C1.33819 13.7501 1.00194 13.4143 1.00194 13.0002C1.00194 12.586 1.33819 12.2502 1.75291 12.2502C2.16762 12.2502 2.50387 12.586 2.50387 13.0002C2.50387 13.4143 2.16762 13.7501 1.75291 13.7501Z" fill="#9BC9FF"/>
<path d="M15.0193 8.56021C15.034 8.22711 14.9099 7.90279 14.6766 7.66428C14.5415 7.52294 14.3769 7.41284 14.1945 7.3418C14.3896 7.12648 14.5041 6.85038 14.5187 6.56037C14.5333 6.22726 14.4093 5.90295 14.1759 5.66444C13.924 5.40103 13.5753 5.25163 13.2105 5.25077H9.28696L9.59485 2.17594C9.64435 1.68415 9.48326 1.19432 9.15129 0.827653C8.81932 0.46086 8.34764 0.251526 7.85262 0.25116H7.25933C6.84461 0.25116 6.50837 0.586949 6.50837 1.0011V2.00102C6.50568 3.69718 5.19797 5.10638 3.5045 5.23796V4.00087C3.5045 3.86282 3.39242 3.75089 3.25418 3.75089H0.250322C0.112083 3.75089 0 3.86282 0 4.00087V14.5001C0 14.6381 0.112083 14.75 0.250322 14.75H3.25418C3.39242 14.75 3.5045 14.6381 3.5045 14.5001V12.9274L3.54227 12.9487C4.47878 13.4737 5.53458 13.7496 6.60847 13.7501H12.7664C13.2585 13.7498 13.7047 13.4614 13.9068 13.0132C14.1088 12.5652 14.0291 12.0404 13.7032 11.6723C13.872 11.6087 14.0255 11.5102 14.1537 11.3832C14.6201 10.9156 14.642 10.1664 14.2038 9.67243C14.3727 9.60884 14.5262 9.51046 14.6543 9.38339C14.8735 9.16331 15.0034 8.87012 15.0193 8.56021ZM3.00386 14.2501H0.500643V4.25085H3.00386V14.2501ZM14.3004 9.0299C14.1589 9.17088 13.9674 9.25022 13.7677 9.25047H11.7651C11.6269 9.25047 11.5148 9.3624 11.5148 9.50045C11.5148 9.6385 11.6269 9.75043 11.7651 9.75043H13.2671C13.6818 9.75043 14.018 10.0862 14.018 10.5004C14.018 10.9145 13.6818 11.2503 13.2671 11.2503H11.7651C11.6269 11.2503 11.5148 11.3622 11.5148 11.5003C11.5148 11.6383 11.6269 11.7503 11.7651 11.7503H12.7664C13.1811 11.7503 13.5174 12.0861 13.5174 12.5002C13.5174 12.9144 13.1811 13.2502 12.7664 13.2502H6.60847C5.62063 13.2495 4.64929 12.9957 3.78783 12.5127L3.5045 12.354V5.74244C5.47554 5.60841 7.00644 3.97389 7.00901 2.00102V1.0011C7.00901 0.863051 7.12109 0.751121 7.25933 0.751121H7.85262C8.20635 0.751121 8.54357 0.900524 8.78082 1.16247C9.01806 1.42453 9.13332 1.77448 9.098 2.12602L8.76248 5.47573C8.75539 5.54604 8.7785 5.61598 8.82592 5.66847C8.87334 5.72083 8.94081 5.75074 9.01158 5.75074H13.2105C13.438 5.75159 13.6555 5.84497 13.8126 6.00938C13.9508 6.14939 14.0252 6.34017 14.018 6.53669C13.9994 6.93705 13.6683 7.25172 13.2671 7.25062H11.7651C11.6269 7.25062 11.5148 7.36255 11.5148 7.5006C11.5148 7.63865 11.6269 7.75058 11.7651 7.75058H13.7111C13.9387 7.75144 14.1561 7.84481 14.3132 8.00923C14.4514 8.14923 14.5259 8.34001 14.5187 8.53653C14.509 8.72219 14.4314 8.89783 14.3004 9.0299V9.0299Z" fill="#1E81CE"/>
<path d="M1.75226 12.0002C1.19931 12.0002 0.750977 12.4478 0.750977 13.0002C0.750977 13.5524 1.19931 14.0001 1.75226 14.0001C2.30522 14.0001 2.75355 13.5524 2.75355 13.0002C2.75355 12.4478 2.30522 12.0002 1.75226 12.0002ZM1.75226 13.5001C1.47578 13.5001 1.25162 13.2763 1.25162 13.0002C1.25162 12.7241 1.47578 12.5002 1.75226 12.5002C2.02874 12.5002 2.25291 12.7241 2.25291 13.0002C2.25291 13.2763 2.02874 13.5001 1.75226 13.5001Z" fill="#1E81CE"/>
</g>
<defs>
<clipPath id="clip0">
<rect width="15.0205" height="15" fill="white"/>
</clipPath>
</defs>
</svg>
